<!DOCTYPE svg PUBLIC "-//W3C//DTD SVG 1.1//EN" "http://www.w3.org/Graphics/SVG/1.1/DTD/svg11.dtd">
<!-- Uploaded to: SVG Repo, www.svgrepo.com, Transformed by: SVG Repo Mixer Tools -->
<svg fill="#000000" height="77px" width="77px" version="1.1" id="Capa_1" xmlns="http://www.w3.org/2000/svg" xmlns:xlink="http://www.w3.org/1999/xlink" viewBox="-9 -9 78.00 78.00" xml:space="preserve" stroke="#000000" stroke-width="0.0006000000000000001">
<g id="SVGRepo_bgCarrier" stroke-width="0"/>
<g id="SVGRepo_tracerCarrier" stroke-linecap="round" stroke-linejoin="round"/>
<g id="SVGRepo_iconCarrier"> <g> <g> <path d="M56.15,0H3.85C1.727,0,0,1.727,0,3.85v52.3C0,58.273,1.727,60,3.85,60h52.3c2.123,0,3.85-1.727,3.85-3.85V3.85 C60,1.727,58.273,0,56.15,0z M58,56.15c0,1.02-0.83,1.85-1.85,1.85H3.85C2.83,58,2,57.17,2,56.15V3.85C2,2.83,2.83,2,3.85,2h52.3 C57.17,2,58,2.83,58,3.85V56.15z"/> <path d="M53,49c-2.206,0-4,1.794-4,4s1.794,4,4,4s4-1.794,4-4S55.206,49,53,49z M53,55c-1.103,0-2-0.897-2-2s0.897-2,2-2 s2,0.897,2,2S54.103,55,53,55z"/> <path d="M53,11c2.206,0,4-1.794,4-4s-1.794-4-4-4s-4,1.794-4,4S50.794,11,53,11z M53,5c1.103,0,2,0.897,2,2s-0.897,2-2,2 s-2-0.897-2-2S51.897,5,53,5z"/> <path d="M7,49c-2.206,0-4,1.794-4,4s1.794,4,4,4s4-1.794,4-4S9.206,49,7,49z M7,55c-1.103,0-2-0.897-2-2s0.897-2,2-2s2,0.897,2,2 S8.103,55,7,55z"/> <path d="M7,11c2.206,0,4-1.794,4-4S9.206,3,7,3S3,4.794,3,7S4.794,11,7,11z M7,5c1.103,0,2,0.897,2,2S8.103,9,7,9S5,8.103,5,7 S5.897,5,7,5z"/> <path d="M56.96,28.551c-0.081-1.525-0.295-3.014-0.62-4.462l0.011-0.013l-0.123-0.507c-0.014-0.058-0.034-0.114-0.048-0.172 c-0.123-0.489-0.258-0.974-0.408-1.452c-0.061-0.196-0.132-0.389-0.198-0.583c-0.103-0.305-0.209-0.608-0.323-0.908 c-0.09-0.237-0.182-0.471-0.279-0.705c-0.106-0.258-0.219-0.513-0.333-0.767c-0.17-0.379-0.348-0.753-0.536-1.123 c-0.13-0.257-0.258-0.514-0.396-0.766c-0.147-0.27-0.304-0.535-0.461-0.8c-0.102-0.172-0.205-0.343-0.31-0.512 c-0.172-0.276-0.345-0.55-0.526-0.82c-0.07-0.104-0.144-0.205-0.216-0.307c-0.374-0.541-0.769-1.067-1.183-1.58 c-0.086-0.106-0.169-0.213-0.256-0.318c-0.225-0.271-0.456-0.537-0.693-0.799c-0.091-0.101-0.185-0.2-0.278-0.3 c-0.198-0.213-0.387-0.433-0.592-0.641l-1.139-1.151l-0.022,0.064c-1.115-1.003-2.317-1.911-3.588-2.719l-0.002-0.029L43.996,6.91 c-0.28-0.17-0.569-0.321-0.855-0.48c-0.122-0.068-0.243-0.139-0.366-0.205c-0.279-0.15-0.561-0.294-0.845-0.434 c-0.21-0.104-0.422-0.203-0.635-0.302c-0.244-0.113-0.487-0.228-0.735-0.333c-0.448-0.191-0.903-0.371-1.363-0.538 C39.05,4.562,38.9,4.515,38.75,4.464c-0.388-0.133-0.779-0.258-1.174-0.374c-0.142-0.041-0.284-0.082-0.427-0.121 c-0.502-0.138-1.009-0.265-1.522-0.374c-0.018-0.004-0.036-0.009-0.055-0.013c-0.57-0.12-1.147-0.22-1.729-0.303 c-0.058-0.008-0.116-0.014-0.174-0.022c-0.507-0.069-1.018-0.123-1.533-0.164c-0.098-0.008-0.195-0.016-0.293-0.022 C31.234,3.029,30.62,3,30,3c-0.034,0-0.067,0.002-0.101,0.003l-1.373-0.007l0.022,0.045c-1.525,0.081-3.015,0.296-4.463,0.62 l-0.012-0.01l-0.506,0.123c-0.048,0.012-0.094,0.028-0.142,0.04c-0.507,0.127-1.009,0.267-1.505,0.423 c-0.163,0.051-0.322,0.11-0.484,0.164c-0.341,0.115-0.681,0.234-1.016,0.362c-0.216,0.082-0.43,0.167-0.644,0.254 c-0.288,0.119-0.573,0.244-0.856,0.372c-0.274,0.124-0.547,0.249-0.817,0.382c-0.347,0.171-0.691,0.347-1.029,0.532 C16.819,6.442,16.57,6.59,16.32,6.737c-0.19,0.112-0.379,0.226-0.566,0.343c-0.263,0.164-0.525,0.329-0.783,0.502 c-0.135,0.091-0.267,0.187-0.4,0.281c-0.499,0.348-0.986,0.713-1.461,1.096c-0.124,0.1-0.25,0.198-0.372,0.3 c-0.261,0.217-0.517,0.44-0.77,0.667c-0.117,0.105-0.232,0.214-0.347,0.321c-0.203,0.189-0.412,0.369-0.609,0.564L9.861,11.95 l0.063,0.021c-1.003,1.116-1.911,2.317-2.719,3.588l-0.029,0.002l-0.271,0.445c-0.168,0.277-0.318,0.564-0.476,0.847 c-0.07,0.125-0.142,0.248-0.21,0.374c-0.151,0.28-0.294,0.563-0.435,0.848c-0.102,0.206-0.199,0.414-0.296,0.622 c-0.115,0.25-0.232,0.498-0.34,0.75c-0.189,0.443-0.366,0.891-0.531,1.346c-0.06,0.165-0.112,0.331-0.169,0.497 c-0.125,0.366-0.243,0.735-0.353,1.109c-0.047,0.161-0.093,0.321-0.137,0.482c-0.127,0.464-0.243,0.932-0.346,1.406 c-0.012,0.056-0.027,0.111-0.039,0.167c-0.116,0.551-0.212,1.109-0.293,1.672c-0.014,0.095-0.024,0.191-0.037,0.287 c-0.062,0.462-0.111,0.927-0.149,1.396c-0.011,0.133-0.022,0.265-0.03,0.398c-0.033,0.506-0.055,1.016-0.06,1.53 c0,0.041-0.005,0.082-0.005,0.123v0.083C3.001,29.961,3,29.98,3,30c0,0.013,0.001,0.025,0.001,0.038l-0.008,1.438l0.047-0.023 c0.081,1.524,0.295,3.013,0.62,4.46l-0.012,0.013l0.123,0.507c0.015,0.063,0.036,0.123,0.052,0.186 c0.121,0.478,0.253,0.952,0.399,1.42c0.07,0.225,0.151,0.447,0.227,0.67c0.092,0.27,0.186,0.54,0.287,0.806 c0.098,0.26,0.2,0.518,0.306,0.775c0.09,0.217,0.185,0.431,0.28,0.646c0.253,0.569,0.524,1.128,0.815,1.678 c0.046,0.087,0.088,0.176,0.135,0.262c0.167,0.306,0.343,0.607,0.522,0.906c0.075,0.126,0.151,0.252,0.229,0.377 c0.192,0.311,0.387,0.619,0.592,0.923c0.005,0.007,0.01,0.014,0.015,0.021c0.455,0.673,0.944,1.324,1.46,1.956 c0.039,0.047,0.076,0.095,0.115,0.143c0.251,0.303,0.509,0.601,0.774,0.894c0.046,0.051,0.093,0.101,0.14,0.151 c0.228,0.249,0.449,0.503,0.687,0.743l1.139,1.151l0.022-0.066c1.115,1.003,2.316,1.91,3.587,2.719l0.002,0.032l0.445,0.271 c0.349,0.212,0.709,0.404,1.066,0.599c0.031,0.017,0.062,0.035,0.093,0.052c0.326,0.176,0.655,0.344,0.987,0.506 c0.138,0.068,0.278,0.133,0.418,0.199c0.307,0.143,0.613,0.287,0.925,0.419c0.412,0.175,0.828,0.339,1.25,0.493 c0.222,0.081,0.448,0.153,0.672,0.228c0.3,0.101,0.602,0.198,0.907,0.289c0.206,0.061,0.413,0.12,0.621,0.177 c0.388,0.105,0.78,0.201,1.175,0.289c0.126,0.028,0.25,0.061,0.377,0.087c0.522,0.109,1.051,0.2,1.583,0.278 c0.146,0.021,0.293,0.037,0.439,0.056c0.404,0.052,0.811,0.096,1.22,0.13c0.174,0.015,0.349,0.029,0.523,0.04 c0.439,0.028,0.881,0.045,1.326,0.052c0.09,0.001,0.18,0.01,0.27,0.01l1.619,0.009l-0.024-0.049 c1.524-0.081,3.013-0.295,4.461-0.62l0.014,0.012l0.507-0.123c0.068-0.017,0.134-0.04,0.202-0.057 c0.467-0.119,0.931-0.247,1.389-0.39c0.25-0.078,0.495-0.167,0.743-0.252c0.242-0.083,0.484-0.167,0.723-0.257 c0.278-0.104,0.553-0.213,0.828-0.327c0.19-0.079,0.376-0.162,0.564-0.245c1.008-0.445,1.986-0.95,2.932-1.515 c0.108-0.065,0.216-0.129,0.323-0.195c1.025-0.632,2.008-1.333,2.945-2.099c0.038-0.031,0.076-0.061,0.114-0.092 c0.307-0.254,0.608-0.515,0.904-0.783c0.048-0.044,0.095-0.088,0.143-0.132c0.25-0.229,0.505-0.452,0.747-0.691l1.151-1.139 l-0.066-0.022c1.003-1.115,1.911-2.316,2.719-3.587l0.031-0.002L53.094,44c0.199-0.327,0.377-0.665,0.561-1 c0.034-0.061,0.069-0.121,0.102-0.182c0.167-0.308,0.325-0.62,0.479-0.935c0.082-0.167,0.161-0.336,0.24-0.505 c0.131-0.281,0.262-0.561,0.383-0.846c0.182-0.428,0.353-0.861,0.513-1.3c0.069-0.189,0.129-0.38,0.193-0.57 c0.116-0.34,0.226-0.683,0.328-1.029c0.052-0.177,0.103-0.354,0.151-0.532c0.12-0.439,0.229-0.883,0.327-1.331 c0.017-0.078,0.037-0.154,0.054-0.232c0.114-0.544,0.209-1.094,0.29-1.65c0.015-0.105,0.026-0.211,0.04-0.317 c0.06-0.452,0.109-0.907,0.146-1.365c0.011-0.138,0.023-0.276,0.032-0.414c0.033-0.502,0.054-1.006,0.059-1.515 c0-0.043,0.005-0.087,0.005-0.13v-0.088C56.999,30.039,57,30.02,57,30c0-0.013-0.001-0.025-0.001-0.038l0.008-1.435L56.96,28.551z M54.901,32.151c-0.026,0.303-0.058,0.605-0.095,0.906c-0.018,0.146-0.035,0.293-0.056,0.439 c-0.042,0.303-0.093,0.604-0.146,0.904c-0.026,0.144-0.049,0.289-0.077,0.432c-0.058,0.294-0.125,0.586-0.193,0.878 c-0.035,0.148-0.066,0.298-0.103,0.445c-0.066,0.262-0.143,0.521-0.218,0.781c-0.269,0.931-0.586,1.842-0.958,2.726 c-0.01,0.023-0.019,0.047-0.029,0.071c-0.153,0.36-0.314,0.715-0.483,1.066c-0.007,0.014-0.013,0.029-0.02,0.043 c-0.276,0.571-0.578,1.126-0.895,1.672c-8.45,0.43-14.068-1.744-17.54-6.835c0.059-0.042,0.112-0.092,0.169-0.136 c0.098-0.075,0.195-0.151,0.289-0.232c0.089-0.076,0.175-0.156,0.26-0.237c0.083-0.079,0.165-0.159,0.244-0.242 c0.082-0.086,0.161-0.173,0.239-0.263s0.153-0.183,0.226-0.277c0.067-0.087,0.134-0.174,0.197-0.263 c0.079-0.112,0.154-0.228,0.226-0.345c0.032-0.052,0.07-0.1,0.1-0.153c8.609,4.848,15.115,0.762,18.671-1.471 c0.07-0.043,0.138-0.087,0.206-0.13C54.912,32.004,54.908,32.078,54.901,32.151z M40.863,52.513 c-0.017,0.008-0.035,0.017-0.052,0.026c-0.326,0.157-0.658,0.306-0.992,0.449c-0.064,0.027-0.127,0.054-0.191,0.081 c-0.311,0.13-0.625,0.254-0.942,0.372c-0.09,0.033-0.18,0.065-0.27,0.097c-0.303,0.109-0.608,0.214-0.917,0.311 c-0.107,0.034-0.215,0.064-0.323,0.096c-0.239,0.072-0.48,0.141-0.722,0.205c-6.294-5.671-8.723-11.186-7.579-17.243 c0.046,0.007,0.092,0.009,0.138,0.015c0.155,0.022,0.311,0.04,0.469,0.052c0.092,0.007,0.183,0.011,0.275,0.014 C29.84,36.99,29.919,37,30,37c0.067,0,0.132-0.008,0.199-0.01c0.096-0.003,0.191-0.008,0.286-0.015 c0.15-0.01,0.299-0.025,0.446-0.045c0.084-0.011,0.168-0.024,0.252-0.039c0.161-0.028,0.319-0.061,0.477-0.099 c0.039-0.01,0.078-0.014,0.117-0.024c2.657,9.513,10.148,11.227,14.24,12.163c0.077,0.017,0.151,0.034,0.225,0.051 C44.614,50.376,42.811,51.57,40.863,52.513z M27.787,54.896c-0.256-0.022-0.511-0.05-0.766-0.08 c-0.189-0.023-0.379-0.045-0.567-0.072c-0.254-0.036-0.506-0.079-0.758-0.123c-0.19-0.033-0.38-0.064-0.568-0.102 c-0.236-0.047-0.469-0.101-0.703-0.154c-0.204-0.047-0.41-0.09-0.612-0.142c-0.164-0.042-0.326-0.091-0.489-0.136 c-2.065-0.573-4.021-1.404-5.835-2.458c-0.437-8.455,1.745-14.068,6.835-17.539c0.04,0.056,0.087,0.106,0.129,0.16 c0.078,0.102,0.157,0.202,0.24,0.3c0.075,0.088,0.154,0.172,0.233,0.256c0.079,0.083,0.159,0.165,0.243,0.245 c0.087,0.083,0.175,0.164,0.266,0.242c0.087,0.075,0.177,0.148,0.268,0.219c0.091,0.071,0.182,0.141,0.277,0.207 c0.105,0.074,0.213,0.143,0.323,0.212c0.057,0.036,0.111,0.077,0.17,0.111c-4.847,8.606-0.761,15.115,1.471,18.671 c0.043,0.069,0.086,0.137,0.128,0.204C27.976,54.911,27.881,54.905,27.787,54.896z M7.511,40.911 c-0.02-0.042-0.042-0.083-0.062-0.125c-0.147-0.306-0.286-0.616-0.421-0.929c-0.038-0.088-0.075-0.175-0.112-0.264 c-0.121-0.29-0.237-0.583-0.347-0.878c-0.043-0.115-0.083-0.23-0.124-0.346c-0.1-0.281-0.197-0.563-0.287-0.848 c-0.043-0.136-0.082-0.274-0.122-0.411c-0.065-0.217-0.128-0.435-0.186-0.655c5.674-6.296,11.182-8.726,17.245-7.578 c-0.005,0.029-0.005,0.058-0.009,0.086c-0.027,0.182-0.048,0.366-0.061,0.553c-0.005,0.068-0.008,0.135-0.01,0.203 C23.01,29.814,23,29.906,23,30c0,0.078,0.009,0.154,0.012,0.231c0.002,0.074,0.006,0.148,0.011,0.222 c0.011,0.171,0.028,0.34,0.051,0.507c0.009,0.067,0.02,0.134,0.031,0.201c0.029,0.173,0.064,0.343,0.106,0.512 c0.009,0.035,0.013,0.071,0.022,0.105c-9.512,2.657-11.226,10.148-12.162,14.24c-0.017,0.077-0.034,0.151-0.051,0.225 C9.636,44.63,8.452,42.841,7.511,40.911z M5.011,30.445c0.413-0.235,0.847-0.498,1.34-0.807c3.001-1.884,7.225-4.516,12.855-2.99 c-4.794,0.32-9.375,2.783-13.868,7.432C5.143,32.894,5.033,31.68,5.011,30.445z M5.098,27.863c0.027-0.313,0.06-0.626,0.098-0.937 c0.017-0.135,0.033-0.271,0.052-0.405c0.045-0.319,0.097-0.637,0.154-0.954c0.023-0.127,0.043-0.254,0.068-0.38 c0.063-0.322,0.135-0.642,0.211-0.961c0.028-0.12,0.053-0.241,0.083-0.36c0.082-0.326,0.175-0.648,0.271-0.97 c0.086-0.289,0.178-0.575,0.274-0.859c0.071-0.212,0.139-0.425,0.216-0.635c0.111-0.302,0.231-0.599,0.353-0.895 c0.037-0.09,0.071-0.18,0.109-0.269c0.135-0.316,0.277-0.628,0.424-0.937c0.029-0.061,0.057-0.123,0.087-0.184 c0.159-0.327,0.324-0.649,0.496-0.968c0.018-0.034,0.036-0.068,0.055-0.102c0.103-0.188,0.213-0.371,0.32-0.556 c8.445-0.445,14.07,1.744,17.542,6.835c-0.034,0.025-0.065,0.054-0.099,0.079c-0.134,0.101-0.266,0.204-0.392,0.314 c-0.064,0.055-0.126,0.113-0.188,0.171c-0.108,0.1-0.212,0.203-0.313,0.31c-0.063,0.067-0.125,0.135-0.186,0.205 c-0.096,0.11-0.187,0.222-0.276,0.337c-0.054,0.07-0.107,0.139-0.158,0.211c-0.092,0.129-0.178,0.262-0.261,0.397 c-0.026,0.042-0.056,0.081-0.081,0.124c-8.606-4.848-15.115-0.761-18.67,1.471c-0.07,0.044-0.138,0.087-0.206,0.13 C5.087,28.003,5.092,27.933,5.098,27.863z M14.086,10.734c0.023-0.019,0.046-0.037,0.069-0.056 c1.204-0.989,2.502-1.868,3.878-2.622c0.025-0.014,0.049-0.028,0.074-0.042c0.28-0.152,0.566-0.296,0.853-0.438 c0.106-0.053,0.212-0.106,0.319-0.157c0.256-0.122,0.515-0.238,0.775-0.351c0.144-0.063,0.289-0.125,0.435-0.185 c0.241-0.099,0.484-0.195,0.728-0.288c0.174-0.065,0.35-0.128,0.525-0.189c0.226-0.079,0.452-0.158,0.681-0.231 c0.212-0.068,0.427-0.129,0.641-0.191c0.159-0.046,0.317-0.093,0.477-0.136c6.296,5.672,8.725,11.188,7.581,17.245 c-0.023-0.004-0.045-0.004-0.068-0.007c-0.197-0.03-0.397-0.052-0.599-0.065c-0.046-0.003-0.092-0.005-0.139-0.007 C30.211,23.011,30.107,23,30,23c-0.089,0-0.176,0.01-0.264,0.013c-0.05,0.002-0.1,0.005-0.151,0.008 c-0.195,0.011-0.389,0.031-0.579,0.058c-0.044,0.006-0.087,0.013-0.131,0.02c-0.201,0.033-0.399,0.074-0.594,0.124 c-0.019,0.005-0.038,0.007-0.057,0.012c-2.657-9.512-10.148-11.226-14.24-12.162c-0.078-0.017-0.154-0.034-0.228-0.052 C13.866,10.926,13.973,10.827,14.086,10.734z M32.076,5.093c0.359,0.03,0.717,0.067,1.074,0.113 c0.094,0.012,0.188,0.023,0.281,0.036c0.366,0.05,0.73,0.11,1.092,0.176c0.084,0.016,0.169,0.029,0.253,0.045 c0.372,0.072,0.742,0.155,1.11,0.244c0.074,0.018,0.149,0.033,0.222,0.051c0.394,0.099,0.786,0.209,1.175,0.327 c0.045,0.014,0.092,0.025,0.137,0.039c0.401,0.124,0.798,0.261,1.192,0.405c0.279,0.103,0.554,0.215,0.828,0.327 c0.11,0.045,0.222,0.087,0.331,0.134c0.309,0.132,0.614,0.271,0.917,0.415c0.067,0.031,0.134,0.062,0.2,0.094 c0.325,0.158,0.647,0.323,0.964,0.495c0.033,0.018,0.066,0.036,0.099,0.054c0.189,0.103,0.373,0.214,0.559,0.322 c0.438,8.457-1.744,14.071-6.835,17.543c-0.027-0.037-0.059-0.071-0.086-0.107c-0.098-0.13-0.199-0.258-0.306-0.381 c-0.057-0.065-0.115-0.128-0.174-0.191c-0.1-0.107-0.203-0.212-0.31-0.313c-0.066-0.062-0.133-0.123-0.201-0.183 c-0.112-0.098-0.228-0.193-0.347-0.284c-0.065-0.05-0.13-0.1-0.198-0.148c-0.136-0.097-0.277-0.188-0.42-0.276 c-0.036-0.022-0.07-0.049-0.107-0.07c4.847-8.605,0.761-15.114-1.471-18.67c-0.044-0.071-0.088-0.14-0.131-0.208 C31.977,5.085,32.026,5.089,32.076,5.093z M49.282,14.105c0.002,0.002,0.004,0.004,0.005,0.006 c1.233,1.494,2.293,3.135,3.156,4.89c0.042,0.086,0.086,0.171,0.127,0.257c0.131,0.274,0.255,0.551,0.376,0.83 c0.053,0.122,0.105,0.245,0.156,0.368c0.109,0.262,0.213,0.526,0.313,0.793c0.054,0.145,0.106,0.292,0.158,0.438 c0.09,0.254,0.178,0.509,0.26,0.767c0.053,0.167,0.101,0.336,0.15,0.505c0.057,0.194,0.114,0.389,0.167,0.585 c-5.674,6.296-11.189,8.727-17.245,7.579c0.005-0.032,0.006-0.064,0.011-0.096c0.026-0.178,0.047-0.357,0.059-0.538 c0.005-0.071,0.008-0.141,0.011-0.212C36.99,30.185,37,30.094,37,30c0-0.078-0.009-0.154-0.012-0.231 c-0.002-0.072-0.006-0.143-0.011-0.215c-0.011-0.176-0.028-0.35-0.052-0.522c-0.008-0.06-0.017-0.12-0.027-0.179 c-0.03-0.184-0.068-0.365-0.113-0.543c-0.007-0.028-0.01-0.057-0.018-0.084c9.512-2.657,11.226-10.149,12.162-14.241 c0.017-0.077,0.035-0.152,0.051-0.227C49.081,13.874,49.185,13.987,49.282,14.105z M34.201,32.69 c-0.08,0.125-0.174,0.239-0.264,0.355c-0.104,0.134-0.206,0.268-0.322,0.39c-0.1,0.105-0.21,0.198-0.318,0.294 c-0.125,0.111-0.251,0.221-0.386,0.319c-0.126,0.09-0.26,0.169-0.395,0.248c-0.163,0.096-0.325,0.194-0.5,0.271 c-0.154,0.068-0.314,0.112-0.472,0.164c-0.145,0.048-0.288,0.102-0.438,0.136c-0.147,0.033-0.296,0.046-0.445,0.066 c-0.172,0.023-0.344,0.048-0.521,0.053c-0.152,0.004-0.305-0.008-0.457-0.018c-0.168-0.011-0.336-0.023-0.499-0.05 s-0.324-0.068-0.485-0.111c-0.183-0.05-0.365-0.099-0.539-0.168c-0.146-0.058-0.281-0.134-0.419-0.204 c-0.146-0.075-0.294-0.146-0.431-0.234c-0.122-0.078-0.233-0.17-0.347-0.258c-0.135-0.105-0.271-0.208-0.395-0.326 c-0.106-0.1-0.2-0.212-0.296-0.321c-0.109-0.123-0.218-0.247-0.314-0.381c-0.093-0.13-0.174-0.269-0.256-0.408 c-0.094-0.161-0.191-0.319-0.267-0.491c-0.07-0.158-0.115-0.323-0.168-0.486c-0.045-0.138-0.097-0.274-0.13-0.417 c-0.036-0.16-0.051-0.322-0.071-0.484c-0.02-0.157-0.043-0.314-0.048-0.476c-0.005-0.167,0.008-0.335,0.02-0.503 c0.011-0.151,0.022-0.302,0.045-0.45c0.029-0.179,0.073-0.355,0.122-0.531c0.046-0.167,0.091-0.334,0.154-0.494 c0.067-0.171,0.154-0.33,0.239-0.491c0.064-0.12,0.122-0.244,0.195-0.358c0.092-0.144,0.199-0.276,0.304-0.409 c0.09-0.114,0.177-0.229,0.276-0.335c0.117-0.124,0.246-0.235,0.375-0.346c0.106-0.091,0.21-0.184,0.323-0.266 c0.15-0.109,0.31-0.203,0.472-0.296c0.141-0.081,0.279-0.166,0.429-0.233c0.189-0.084,0.386-0.141,0.582-0.201 c0.108-0.033,0.213-0.075,0.324-0.101c0.178-0.041,0.359-0.058,0.539-0.079c0.141-0.017,0.28-0.038,0.424-0.043 c0.178-0.006,0.356,0.008,0.534,0.021c0.142,0.011,0.283,0.02,0.421,0.043c0.184,0.03,0.367,0.075,0.548,0.126 c0.161,0.045,0.324,0.088,0.478,0.149c0.179,0.07,0.346,0.161,0.513,0.25c0.114,0.061,0.231,0.115,0.339,0.184 c0.147,0.093,0.281,0.203,0.417,0.31c0.112,0.089,0.226,0.174,0.33,0.272c0.123,0.116,0.233,0.244,0.344,0.372 c0.093,0.107,0.187,0.213,0.271,0.328c0.106,0.146,0.197,0.302,0.287,0.459c0.084,0.147,0.173,0.29,0.242,0.446 c0.077,0.173,0.128,0.353,0.184,0.532c0.039,0.125,0.087,0.246,0.117,0.375c0.038,0.165,0.053,0.333,0.073,0.5 c0.019,0.154,0.042,0.307,0.047,0.465c0.005,0.167-0.008,0.333-0.02,0.5c-0.011,0.154-0.022,0.307-0.046,0.457 c-0.029,0.175-0.072,0.348-0.12,0.52c-0.048,0.173-0.094,0.346-0.159,0.511c-0.061,0.154-0.14,0.296-0.215,0.442 C34.353,32.417,34.285,32.559,34.201,32.69z M46.979,13.538c-0.79,3.454-1.916,8.304-6.977,11.204 c3.162-3.613,4.66-8.591,4.552-15.05c0.989,0.711,1.925,1.492,2.799,2.337C47.229,12.485,47.109,12.975,46.979,13.538z M30.364,6.354c1.884,3.001,4.517,7.227,2.99,12.857c-0.319-4.795-2.783-9.379-7.434-13.872c1.186-0.196,2.4-0.305,3.636-0.327 C29.791,5.425,30.055,5.86,30.364,6.354z M13.537,13.022c3.455,0.79,8.307,1.917,11.207,6.982 c-3.616-3.164-8.6-4.663-15.053-4.557c0.711-0.99,1.492-1.925,2.337-2.8C12.484,12.773,12.974,12.893,13.537,13.022z M13.021,46.465c0.79-3.453,1.916-8.302,6.976-11.203c-3.161,3.612-4.659,8.589-4.552,15.046 c-0.989-0.711-1.924-1.491-2.798-2.336C12.771,47.516,12.892,47.026,13.021,46.465z M29.636,53.65 c-1.884-3.001-4.517-7.227-2.99-12.857c0.319,4.794,2.782,9.376,7.432,13.868c-1.186,0.195-2.4,0.305-3.636,0.327 C30.207,54.576,29.944,54.143,29.636,53.65z M46.463,46.981c-3.459-0.791-8.32-1.919-11.219-7.003 c3.493,3.068,8.256,4.588,14.412,4.587c0.213,0,0.442-0.018,0.659-0.022c-0.714,0.994-1.497,1.933-2.346,2.811 C47.514,47.23,47.025,47.11,46.463,46.981z M53.648,30.366c-3,1.884-7.226,4.518-12.858,2.99 c4.795-0.318,9.378-2.786,13.871-7.436c0.196,1.187,0.306,2.402,0.327,3.639C54.576,29.794,54.142,30.057,53.648,30.366z"/> </g> </g> </g>
</svg>